# xmcd
#
# Track frame offsets: 
#        150
#        19742
#        36110
#        55873
#        72164
#        91086
#        110747
#        128480
#        148484
#        167277
#        186844
#        208166
#        226073
#        245442
#        263029
#        281949
#        300809
#        316852
#        332354
#
# Disc length: 4668 seconds
#
# Revision: 0
# Processed by: cddbd v1.5.2PL0 Copyright (c) Steve Scherf et al.
# Submitted via: ExactAudioCopy v0.99pb5
#
DISCID=01123a13
DTITLE=Various Artist - Viata Manelelor vol.4
DYEAR=2008
DGENRE=Manele
TTITLE0=Nicolae Guta - Cu cine m-am insurat
TTITLE1=Florinel si Ioana - Ziua trece, noaptea vine
TTITLE2=Liviu - Noptile noastre
TTITLE3=Nicoleta Guta - Te iubesc la nebunie
TTITLE4=Florinel si Ioana - De atatea ori
TTITLE5=Ioana, Florin Peste si Play Aj - Of, ce dragoste nebuna
TTITLE6=Ionut Cercel - Nu-mi pasa
TTITLE7=Liviu Pustiu si Dana - Pf, iubirea mea
TTITLE8=Ioana - Viata mea n-are culoare
TTITLE9=Florin Peste, Laura si Diana - Ma jur pe cine vrei
TTITLE10=Nicolae Guta - Teapa, teapa
TTITLE11=Florin Peste si Laura - Am visat ca nu ma mai iubesti
TTITLE12=Denisa - De ce
TTITLE13=Nicolae Guta, Nek, Claudia si De Marco - Ma ridic
TTITLE14=Nicolae Guata si Sorina - Nu-mi pasa
TTITLE15=Florin Peste - Clipa de clipa
TTITLE16=Dia - Ah, iubi, iubi
TTITLE17=Babi Minune - Inima de tigan
TTITLE18=Florin Salam - Amintirea
EXTD=
EXTT0=
EXTT1=
EXTT2=
EXTT3=
EXTT4=
EXTT5=
EXTT6=
EXTT7=
EXTT8=
EXTT9=
EXTT10=
EXTT11=
EXTT12=
EXTT13=
EXTT14=
EXTT15=
EXTT16=
EXTT17=
EXTT18=
PLAYORDER=
